# xmcd CD database file
#
# Track frame offsets:
#	150
#	17525
#	42882
#	60705
#	87162
#	107667
#	118712
#	151412
#	174270
#	194595
#
# Disc length: 2862 seconds
#
# Revision: 0
# Processed by: cddbd v1.5.1PL0 Copyright (c) Steve Scherf et al.
# Submitted via: CDex 1.51
#
DISCID=780b2c0a
DTITLE=Axenstar - The Inquisition
DYEAR=2005
DGENRE=Melodic Speed Metal
TTITLE0=The Fallen One
TTITLE1=Under Black Wings
TTITLE2=Salvation
TTITLE3=Inside Your Mind
TTITLE4=Daydreamer
TTITLE5=Drifting
TTITLE6=The Burning
TTITLE7=Run Or Hide
TTITLE8=The Sands Of Time
TTITLE9=Imaginary Word
EXTD=YEAR: 2005
EXTT0=
EXTT1=
EXTT2=
EXTT3=
EXTT4=
EXTT5=
EXTT6=
EXTT7=
EXTT8=
EXTT9=
PLAYORDER=
